<svg class="arBadge" width="22" height="30" viewBox="0 0 22 30" fill="none" xmlns="http://www.w3.org/2000/svg">
  <path fill-rule="evenodd" clip-rule="evenodd" d="M4 1H18C18.5523 1 19 1.44772 19 2V7H20V2C20 0.895431 19.1046 0 18 0H4C2.89543 0 2 0.89543 2 2V7H3V2C3 1.44772 3.44772 1 4 1ZM3 23H2V28C2 29.1046 2.89543 30 4 30H18C19.1046 30 20 29.1046 20 28V23H19V28C19 28.5523 18.5523 29 18 29H4C3.44772 29 3 28.5523 3 28V23Z" fill="black" fill-opacity="1.0"></path>
  <path d="M8.42969 21L7.60156 18.2812H3.4375L2.60938 21H0L4.03125 9.53125H6.99219L11.0391 21H8.42969ZM7.02344 16.25C6.25781 13.7865 5.82552 12.3932 5.72656 12.0703C5.63281 11.7474 5.5651 11.4922 5.52344 11.3047C5.35156 11.9714 4.85938 13.6198 4.04688 16.25H7.02344ZM14.9062 14.6484H15.6875C16.4531 14.6484 17.0182 14.5208 17.3828 14.2656C17.7474 14.0104 17.9297 13.6094 17.9297 13.0625C17.9297 12.5208 17.7422 12.1354 17.3672 11.9062C16.9974 11.6771 16.4219 11.5625 15.6406 11.5625H14.9062V14.6484ZM14.9062 16.6172V21H12.4844V9.57812H15.8125C17.3646 9.57812 18.513 9.86198 19.2578 10.4297C20.0026 10.9922 20.375 11.849 20.375 13C20.375 13.6719 20.1901 14.2708 19.8203 14.7969C19.4505 15.3177 18.9271 15.7266 18.25 16.0234C19.9688 18.5911 21.0885 20.25 21.6094 21H18.9219L16.1953 16.6172H14.9062Z" fill="black" fill-opacity="1.0"></path>
  <path fill-rule="evenodd" clip-rule="evenodd" d="M13 27H9V26H13V27Z" fill="black" fill-opacity="1.0"></path>
</svg>