<?xml version="1.0"?>
<svg xmlns="http://www.w3.org/2000/svg" xmlns:xlink="http://www.w3.org/1999/xlink" version="1.1" width="500px" height="500px" viewBox="0 0 500 500"><defs><rect id="block" width="15.1515151515" height="15.1515151515" fill="#000000" fill-opacity="1"/></defs><rect x="0" y="0" width="500" height="500" fill="#ffffff" fill-opacity="1"/><use x="0.0000000000" y="0.0000000000" xlink:href="#block"/><use x="15.1515151515" y="0.0000000000" xlink:href="#block"/><use x="30.3030303030" y="0.0000000000" xlink:href="#block"/><use x="45.4545454545" y="0.0000000000" xlink:href="#block"/><use x="60.6060606061" y="0.0000000000" xlink:href="#block"/><use x="75.7575757576" y="0.0000000000" xlink:href="#block"/><use x="90.9090909091" y="0.0000000000" xlink:href="#block"/><use x="121.2121212121" y="0.0000000000" xlink:href="#block"/><use x="136.3636363636" y="0.0000000000" xlink:href="#block"/><use x="151.5151515152" y="0.0000000000" xlink:href="#block"/><use x="196.9696969697" y="0.0000000000" xlink:href="#block"/><use x="212.1212121212" y="0.0000000000" xlink:href="#block"/><use x="227.2727272727" y="0.0000000000" xlink:href="#block"/><use x="257.5757575758" y="0.0000000000" xlink:href="#block"/><use x="272.7272727273" y="0.0000000000" xlink:href="#block"/><use x="303.0303030303" y="0.0000000000" xlink:href="#block"/><use x="318.1818181818" y="0.0000000000" xlink:href="#block"/><use x="363.6363636364" y="0.0000000000" xlink:href="#block"/><use x="393.9393939394" y="0.0000000000" xlink:href="#block"/><use x="409.0909090909" y="0.0000000000" xlink:href="#block"/><use x="424.2424242424" y="0.0000000000" xlink:href="#block"/><use x="439.3939393939" y="0.0000000000" xlink:href="#block"/><use x="454.5454545455" y="0.0000000000" xlink:href="#block"/><use x="469.6969696970" y="0.0000000000" xlink:href="#block"/><use x="484.8484848485" y="0.0000000000" xlink:href="#block"/><use x="0.0000000000" y="15.1515151515" xlink:href="#block"/><use x="90.9090909091" y="15.1515151515" xlink:href="#block"/><use x="166.6666666667" y="15.1515151515" xlink:href="#block"/><use x="242.4242424242" y="15.1515151515" xlink:href="#block"/><use x="257.5757575758" y="15.1515151515" xlink:href="#block"/><use x="287.8787878788" y="15.1515151515" xlink:href="#block"/><use x="318.1818181818" y="15.1515151515" xlink:href="#block"/><use x="393.9393939394" y="15.1515151515" xlink:href="#block"/><use x="484.8484848485" y="15.1515151515" xlink:href="#block"/><use x="0.0000000000" y="30.3030303030" xlink:href="#block"/><use x="30.3030303030" y="30.3030303030" xlink:href="#block"/><use x="45.4545454545" y="30.3030303030" xlink:href="#block"/><use x="60.6060606061" y="30.3030303030" xlink:href="#block"/><use x="90.9090909091" y="30.3030303030" xlink:href="#block"/><use x="121.2121212121" y="30.3030303030" xlink:href="#block"/><use x="136.3636363636" y="30.3030303030" xlink:href="#block"/><use x="166.6666666667" y="30.3030303030" xlink:href="#block"/><use x="181.8181818182" y="30.3030303030" xlink:href="#block"/><use x="242.4242424242" y="30.3030303030" xlink:href="#block"/><use x="257.5757575758" y="30.3030303030" xlink:href="#block"/><use x="272.7272727273" y="30.3030303030" xlink:href="#block"/><use x="318.1818181818" y="30.3030303030" xlink:href="#block"/><use x="333.3333333333" y="30.3030303030" xlink:href="#block"/><use x="348.4848484848" y="30.3030303030" xlink:href="#block"/><use x="393.9393939394" y="30.3030303030" xlink:href="#block"/><use x="424.2424242424" y="30.3030303030" xlink:href="#block"/><use x="439.3939393939" y="30.3030303030" xlink:href="#block"/><use x="454.5454545455" y="30.3030303030" xlink:href="#block"/><use x="484.8484848485" y="30.3030303030" xlink:href="#block"/><use x="0.0000000000" y="45.4545454545" xlink:href="#block"/><use x="30.3030303030" y="45.4545454545" xlink:href="#block"/><use x="45.4545454545" y="45.4545454545" xlink:href="#block"/><use x="60.6060606061" y="45.4545454545" xlink:href="#block"/><use x="90.9090909091" y="45.4545454545" xlink:href="#block"/><use x="136.3636363636" y="45.4545454545" xlink:href="#block"/><use x="151.5151515152" y="45.4545454545" xlink:href="#block"/><use x="196.9696969697" y="45.4545454545" xlink:href="#block"/><use x="212.1212121212" y="45.4545454545" xlink:href="#block"/><use x="227.2727272727" y="45.4545454545" xlink:href="#block"/><use x="257.5757575758" y="45.4545454545" xlink:href="#block"/><use x="287.8787878788" y="45.4545454545" xlink:href="#block"/><use x="303.0303030303" y="45.4545454545" xlink:href="#block"/><use x="333.3333333333" y="45.4545454545" xlink:href="#block"/><use x="393.9393939394" y="45.4545454545" xlink:href="#block"/><use x="424.2424242424" y="45.4545454545" xlink:href="#block"/><use x="439.3939393939" y="45.4545454545" xlink:href="#block"/><use x="454.5454545455" y="45.4545454545" xlink:href="#block"/><use x="484.8484848485" y="45.4545454545" xlink:href="#block"/><use x="0.0000000000" y="60.6060606061" xlink:href="#block"/><use x="30.3030303030" y="60.6060606061" xlink:href="#block"/><use x="45.4545454545" y="60.6060606061" xlink:href="#block"/><use x="60.6060606061" y="60.6060606061" xlink:href="#block"/><use x="90.9090909091" y="60.6060606061" xlink:href="#block"/><use x="121.2121212121" y="60.6060606061" xlink:href="#block"/><use x="212.1212121212" y="60.6060606061" xlink:href="#block"/><use x="227.2727272727" y="60.6060606061" xlink:href="#block"/><use x="257.5757575758" y="60.6060606061" xlink:href="#block"/><use x="287.8787878788" y="60.6060606061" xlink:href="#block"/><use x="318.1818181818" y="60.6060606061" xlink:href="#block"/><use x="393.9393939394" y="60.6060606061" xlink:href="#block"/><use x="424.2424242424" y="60.6060606061" xlink:href="#block"/><use x="439.3939393939" y="60.6060606061" xlink:href="#block"/><use x="454.5454545455" y="60.6060606061" xlink:href="#block"/><use x="484.8484848485" y="60.6060606061" xlink:href="#block"/><use x="0.0000000000" y="75.7575757576" xlink:href="#block"/><use x="90.9090909091" y="75.7575757576" xlink:href="#block"/><use x="136.3636363636" y="75.7575757576" xlink:href="#block"/><use x="166.6666666667" y="75.7575757576" xlink:href="#block"/><use x="181.8181818182" y="75.7575757576" xlink:href="#block"/><use x="212.1212121212" y="75.7575757576" xlink:href="#block"/><use x="242.4242424242" y="75.7575757576" xlink:href="#block"/><use x="257.5757575758" y="75.7575757576" xlink:href="#block"/><use x="272.7272727273" y="75.7575757576" xlink:href="#block"/><use x="303.0303030303" y="75.7575757576" xlink:href="#block"/><use x="318.1818181818" y="75.7575757576" xlink:href="#block"/><use x="333.3333333333" y="75.7575757576" xlink:href="#block"/><use x="393.9393939394" y="75.7575757576" xlink:href="#block"/><use x="484.8484848485" y="75.7575757576" xlink:href="#block"/><use x="0.0000000000" y="90.9090909091" xlink:href="#block"/><use x="15.1515151515" y="90.9090909091" xlink:href="#block"/><use x="30.3030303030" y="90.9090909091" xlink:href="#block"/><use x="45.4545454545" y="90.9090909091" xlink:href="#block"/><use x="60.6060606061" y="90.9090909091" xlink:href="#block"/><use x="75.7575757576" y="90.9090909091" xlink:href="#block"/><use x="90.9090909091" y="90.9090909091" xlink:href="#block"/><use x="121.2121212121" y="90.9090909091" xlink:href="#block"/><use x="151.5151515152" y="90.9090909091" xlink:href="#block"/><use x="181.8181818182" y="90.9090909091" xlink:href="#block"/><use x="212.1212121212" y="90.9090909091" xlink:href="#block"/><use x="242.4242424242" y="90.9090909091" xlink:href="#block"/><use x="272.7272727273" y="90.9090909091" xlink:href="#block"/><use x="303.0303030303" y="90.9090909091" xlink:href="#block"/><use x="333.3333333333" y="90.9090909091" xlink:href="#block"/><use x="363.6363636364" y="90.9090909091" xlink:href="#block"/><use x="393.9393939394" y="90.9090909091" xlink:href="#block"/><use x="409.0909090909" y="90.9090909091" xlink:href="#block"/><use x="424.2424242424" y="90.9090909091" xlink:href="#block"/><use x="439.3939393939" y="90.9090909091" xlink:href="#block"/><use x="454.5454545455" y="90.9090909091" xlink:href="#block"/><use x="469.6969696970" y="90.9090909091" xlink:href="#block"/><use x="484.8484848485" y="90.9090909091" xlink:href="#block"/><use x="121.2121212121" y="106.0606060606" xlink:href="#block"/><use x="151.5151515152" y="106.0606060606" xlink:href="#block"/><use x="227.2727272727" y="106.0606060606" xlink:href="#block"/><use x="318.1818181818" y="106.0606060606" xlink:href="#block"/><use x="348.4848484848" y="106.0606060606" xlink:href="#block"/><use x="75.7575757576" y="121.2121212121" xlink:href="#block"/><use x="90.9090909091" y="121.2121212121" xlink:href="#block"/><use x="151.5151515152" y="121.2121212121" xlink:href="#block"/><use x="181.8181818182" y="121.2121212121" xlink:href="#block"/><use x="257.5757575758" y="121.2121212121" xlink:href="#block"/><use x="272.7272727273" y="121.2121212121" xlink:href="#block"/><use x="303.0303030303" y="121.2121212121" xlink:href="#block"/><use x="318.1818181818" y="121.2121212121" xlink:href="#block"/><use x="363.6363636364" y="121.2121212121" xlink:href="#block"/><use x="393.9393939394" y="121.2121212121" xlink:href="#block"/><use x="424.2424242424" y="121.2121212121" xlink:href="#block"/><use x="454.5454545455" y="121.2121212121" xlink:href="#block"/><use x="484.8484848485" y="121.2121212121" xlink:href="#block"/><use x="0.0000000000" y="136.3636363636" xlink:href="#block"/><use x="15.1515151515" y="136.3636363636" xlink:href="#block"/><use x="45.4545454545" y="136.3636363636" xlink:href="#block"/><use x="106.0606060606" y="136.3636363636" xlink:href="#block"/><use x="121.2121212121" y="136.3636363636" xlink:href="#block"/><use x="196.9696969697" y="136.3636363636" xlink:href="#block"/><use x="227.2727272727" y="136.3636363636" xlink:href="#block"/><use x="242.4242424242" y="136.3636363636" xlink:href="#block"/><use x="257.5757575758" y="136.3636363636" xlink:href="#block"/><use x="303.0303030303" y="136.3636363636" xlink:href="#block"/><use x="348.4848484848" y="136.3636363636" xlink:href="#block"/><use x="393.9393939394" y="136.3636363636" xlink:href="#block"/><use x="409.0909090909" y="136.3636363636" xlink:href="#block"/><use x="424.2424242424" y="136.3636363636" xlink:href="#block"/><use x="439.3939393939" y="136.3636363636" xlink:href="#block"/><use x="454.5454545455" y="136.3636363636" xlink:href="#block"/><use x="469.6969696970" y="136.3636363636" xlink:href="#block"/><use x="60.6060606061" y="151.5151515152" xlink:href="#block"/><use x="90.9090909091" y="151.5151515152" xlink:href="#block"/><use x="121.2121212121" y="151.5151515152" xlink:href="#block"/><use x="136.3636363636" y="151.5151515152" xlink:href="#block"/><use x="166.6666666667" y="151.5151515152" xlink:href="#block"/><use x="181.8181818182" y="151.5151515152" xlink:href="#block"/><use x="196.9696969697" y="151.5151515152" xlink:href="#block"/><use x="212.1212121212" y="151.5151515152" xlink:href="#block"/><use x="227.2727272727" y="151.5151515152" xlink:href="#block"/><use x="242.4242424242" y="151.5151515152" xlink:href="#block"/><use x="257.5757575758" y="151.5151515152" xlink:href="#block"/><use x="333.3333333333" y="151.5151515152" xlink:href="#block"/><use x="348.4848484848" y="151.5151515152" xlink:href="#block"/><use x="363.6363636364" y="151.5151515152" xlink:href="#block"/><use x="378.7878787879" y="151.5151515152" xlink:href="#block"/><use x="424.2424242424" y="151.5151515152" xlink:href="#block"/><use x="469.6969696970" y="151.5151515152" xlink:href="#block"/><use x="484.8484848485" y="151.5151515152" xlink:href="#block"/><use x="0.0000000000" y="166.6666666667" xlink:href="#block"/><use x="45.4545454545" y="166.6666666667" xlink:href="#block"/><use x="121.2121212121" y="166.6666666667" xlink:href="#block"/><use x="136.3636363636" y="166.6666666667" xlink:href="#block"/><use x="196.9696969697" y="166.6666666667" xlink:href="#block"/><use x="212.1212121212" y="166.6666666667" xlink:href="#block"/><use x="227.2727272727" y="166.6666666667" xlink:href="#block"/><use x="242.4242424242" y="166.6666666667" xlink:href="#block"/><use x="272.7272727273" y="166.6666666667" xlink:href="#block"/><use x="287.8787878788" y="166.6666666667" xlink:href="#block"/><use x="303.0303030303" y="166.6666666667" xlink:href="#block"/><use x="348.4848484848" y="166.6666666667" xlink:href="#block"/><use x="363.6363636364" y="166.6666666667" xlink:href="#block"/><use x="378.7878787879" y="166.6666666667" xlink:href="#block"/><use x="393.9393939394" y="166.6666666667" xlink:href="#block"/><use x="409.0909090909" y="166.6666666667" xlink:href="#block"/><use x="484.8484848485" y="166.6666666667" xlink:href="#block"/><use x="0.0000000000" y="181.8181818182" xlink:href="#block"/><use x="15.1515151515" y="181.8181818182" xlink:href="#block"/><use x="30.3030303030" y="181.8181818182" xlink:href="#block"/><use x="90.9090909091" y="181.8181818182" xlink:href="#block"/><use x="121.2121212121" y="181.8181818182" xlink:href="#block"/><use x="166.6666666667" y="181.8181818182" xlink:href="#block"/><use x="181.8181818182" y="181.8181818182" xlink:href="#block"/><use x="212.1212121212" y="181.8181818182" xlink:href="#block"/><use x="242.4242424242" y="181.8181818182" xlink:href="#block"/><use x="257.5757575758" y="181.8181818182" xlink:href="#block"/><use x="287.8787878788" y="181.8181818182" xlink:href="#block"/><use x="318.1818181818" y="181.8181818182" xlink:href="#block"/><use x="348.4848484848" y="181.8181818182" xlink:href="#block"/><use x="393.9393939394" y="181.8181818182" xlink:href="#block"/><use x="424.2424242424" y="181.8181818182" xlink:href="#block"/><use x="454.5454545455" y="181.8181818182" xlink:href="#block"/><use x="469.6969696970" y="181.8181818182" xlink:href="#block"/><use x="484.8484848485" y="181.8181818182" xlink:href="#block"/><use x="0.0000000000" y="196.9696969697" xlink:href="#block"/><use x="45.4545454545" y="196.9696969697" xlink:href="#block"/><use x="60.6060606061" y="196.9696969697" xlink:href="#block"/><use x="75.7575757576" y="196.9696969697" xlink:href="#block"/><use x="136.3636363636" y="196.9696969697" xlink:href="#block"/><use x="151.5151515152" y="196.9696969697" xlink:href="#block"/><use x="196.9696969697" y="196.9696969697" xlink:href="#block"/><use x="242.4242424242" y="196.9696969697" xlink:href="#block"/><use x="272.7272727273" y="196.9696969697" xlink:href="#block"/><use x="287.8787878788" y="196.9696969697" xlink:href="#block"/><use x="333.3333333333" y="196.9696969697" xlink:href="#block"/><use x="348.4848484848" y="196.9696969697" xlink:href="#block"/><use x="363.6363636364" y="196.9696969697" xlink:href="#block"/><use x="409.0909090909" y="196.9696969697" xlink:href="#block"/><use x="424.2424242424" y="196.9696969697" xlink:href="#block"/><use x="439.3939393939" y="196.9696969697" xlink:href="#block"/><use x="454.5454545455" y="196.9696969697" xlink:href="#block"/><use x="0.0000000000" y="212.1212121212" xlink:href="#block"/><use x="15.1515151515" y="212.1212121212" xlink:href="#block"/><use x="60.6060606061" y="212.1212121212" xlink:href="#block"/><use x="75.7575757576" y="212.1212121212" xlink:href="#block"/><use x="90.9090909091" y="212.1212121212" xlink:href="#block"/><use x="151.5151515152" y="212.1212121212" xlink:href="#block"/><use x="212.1212121212" y="212.1212121212" xlink:href="#block"/><use x="227.2727272727" y="212.1212121212" xlink:href="#block"/><use x="257.5757575758" y="212.1212121212" xlink:href="#block"/><use x="287.8787878788" y="212.1212121212" xlink:href="#block"/><use x="303.0303030303" y="212.1212121212" xlink:href="#block"/><use x="378.7878787879" y="212.1212121212" xlink:href="#block"/><use x="424.2424242424" y="212.1212121212" xlink:href="#block"/><use x="439.3939393939" y="212.1212121212" xlink:href="#block"/><use x="469.6969696970" y="212.1212121212" xlink:href="#block"/><use x="0.0000000000" y="227.2727272727" xlink:href="#block"/><use x="15.1515151515" y="227.2727272727" xlink:href="#block"/><use x="30.3030303030" y="227.2727272727" xlink:href="#block"/><use x="45.4545454545" y="227.2727272727" xlink:href="#block"/><use x="60.6060606061" y="227.2727272727" xlink:href="#block"/><use x="181.8181818182" y="227.2727272727" xlink:href="#block"/><use x="196.9696969697" y="227.2727272727" xlink:href="#block"/><use x="212.1212121212" y="227.2727272727" xlink:href="#block"/><use x="227.2727272727" y="227.2727272727" xlink:href="#block"/><use x="242.4242424242" y="227.2727272727" xlink:href="#block"/><use x="287.8787878788" y="227.2727272727" xlink:href="#block"/><use x="318.1818181818" y="227.2727272727" xlink:href="#block"/><use x="348.4848484848" y="227.2727272727" xlink:href="#block"/><use x="363.6363636364" y="227.2727272727" xlink:href="#block"/><use x="378.7878787879" y="227.2727272727" xlink:href="#block"/><use x="424.2424242424" y="227.2727272727" xlink:href="#block"/><use x="454.5454545455" y="227.2727272727" xlink:href="#block"/><use x="0.0000000000" y="242.4242424242" xlink:href="#block"/><use x="30.3030303030" y="242.4242424242" xlink:href="#block"/><use x="45.4545454545" y="242.4242424242" xlink:href="#block"/><use x="75.7575757576" y="242.4242424242" xlink:href="#block"/><use x="90.9090909091" y="242.4242424242" xlink:href="#block"/><use x="121.2121212121" y="242.4242424242" xlink:href="#block"/><use x="136.3636363636" y="242.4242424242" xlink:href="#block"/><use x="151.5151515152" y="242.4242424242" xlink:href="#block"/><use x="181.8181818182" y="242.4242424242" xlink:href="#block"/><use x="196.9696969697" y="242.4242424242" xlink:href="#block"/><use x="227.2727272727" y="242.4242424242" xlink:href="#block"/><use x="242.4242424242" y="242.4242424242" xlink:href="#block"/><use x="257.5757575758" y="242.4242424242" xlink:href="#block"/><use x="272.7272727273" y="242.4242424242" xlink:href="#block"/><use x="287.8787878788" y="242.4242424242" xlink:href="#block"/><use x="303.0303030303" y="242.4242424242" xlink:href="#block"/><use x="363.6363636364" y="242.4242424242" xlink:href="#block"/><use x="378.7878787879" y="242.4242424242" xlink:href="#block"/><use x="409.0909090909" y="242.4242424242" xlink:href="#block"/><use x="439.3939393939" y="242.4242424242" xlink:href="#block"/><use x="454.5454545455" y="242.4242424242" xlink:href="#block"/><use x="484.8484848485" y="242.4242424242" xlink:href="#block"/><use x="15.1515151515" y="257.5757575758" xlink:href="#block"/><use x="60.6060606061" y="257.5757575758" xlink:href="#block"/><use x="106.0606060606" y="257.5757575758" xlink:href="#block"/><use x="121.2121212121" y="257.5757575758" xlink:href="#block"/><use x="196.9696969697" y="257.5757575758" xlink:href="#block"/><use x="212.1212121212" y="257.5757575758" xlink:href="#block"/><use x="227.2727272727" y="257.5757575758" xlink:href="#block"/><use x="242.4242424242" y="257.5757575758" xlink:href="#block"/><use x="272.7272727273" y="257.5757575758" xlink:href="#block"/><use x="303.0303030303" y="257.5757575758" xlink:href="#block"/><use x="363.6363636364" y="257.5757575758" xlink:href="#block"/><use x="378.7878787879" y="257.5757575758" xlink:href="#block"/><use x="424.2424242424" y="257.5757575758" xlink:href="#block"/><use x="454.5454545455" y="257.5757575758" xlink:href="#block"/><use x="469.6969696970" y="257.5757575758" xlink:href="#block"/><use x="484.8484848485" y="257.5757575758" xlink:href="#block"/><use x="0.0000000000" y="272.7272727273" xlink:href="#block"/><use x="30.3030303030" y="272.7272727273" xlink:href="#block"/><use x="75.7575757576" y="272.7272727273" xlink:href="#block"/><use x="90.9090909091" y="272.7272727273" xlink:href="#block"/><use x="136.3636363636" y="272.7272727273" xlink:href="#block"/><use x="166.6666666667" y="272.7272727273" xlink:href="#block"/><use x="181.8181818182" y="272.7272727273" xlink:href="#block"/><use x="196.9696969697" y="272.7272727273" xlink:href="#block"/><use x="212.1212121212" y="272.7272727273" xlink:href="#block"/><use x="227.2727272727" y="272.7272727273" xlink:href="#block"/><use x="242.4242424242" y="272.7272727273" xlink:href="#block"/><use x="257.5757575758" y="272.7272727273" xlink:href="#block"/><use x="272.7272727273" y="272.7272727273" xlink:href="#block"/><use x="287.8787878788" y="272.7272727273" xlink:href="#block"/><use x="333.3333333333" y="272.7272727273" xlink:href="#block"/><use x="348.4848484848" y="272.7272727273" xlink:href="#block"/><use x="393.9393939394" y="272.7272727273" xlink:href="#block"/><use x="409.0909090909" y="272.7272727273" xlink:href="#block"/><use x="439.3939393939" y="272.7272727273" xlink:href="#block"/><use x="0.0000000000" y="287.8787878788" xlink:href="#block"/><use x="15.1515151515" y="287.8787878788" xlink:href="#block"/><use x="30.3030303030" y="287.8787878788" xlink:href="#block"/><use x="60.6060606061" y="287.8787878788" xlink:href="#block"/><use x="106.0606060606" y="287.8787878788" xlink:href="#block"/><use x="166.6666666667" y="287.8787878788" xlink:href="#block"/><use x="196.9696969697" y="287.8787878788" xlink:href="#block"/><use x="212.1212121212" y="287.8787878788" xlink:href="#block"/><use x="272.7272727273" y="287.8787878788" xlink:href="#block"/><use x="318.1818181818" y="287.8787878788" xlink:href="#block"/><use x="348.4848484848" y="287.8787878788" xlink:href="#block"/><use x="378.7878787879" y="287.8787878788" xlink:href="#block"/><use x="393.9393939394" y="287.8787878788" xlink:href="#block"/><use x="409.0909090909" y="287.8787878788" xlink:href="#block"/><use x="454.5454545455" y="287.8787878788" xlink:href="#block"/><use x="469.6969696970" y="287.8787878788" xlink:href="#block"/><use x="484.8484848485" y="287.8787878788" xlink:href="#block"/><use x="15.1515151515" y="303.0303030303" xlink:href="#block"/><use x="30.3030303030" y="303.0303030303" xlink:href="#block"/><use x="60.6060606061" y="303.0303030303" xlink:href="#block"/><use x="90.9090909091" y="303.0303030303" xlink:href="#block"/><use x="136.3636363636" y="303.0303030303" xlink:href="#block"/><use x="166.6666666667" y="303.0303030303" xlink:href="#block"/><use x="196.9696969697" y="303.0303030303" xlink:href="#block"/><use x="257.5757575758" y="303.0303030303" xlink:href="#block"/><use x="272.7272727273" y="303.0303030303" xlink:href="#block"/><use x="333.3333333333" y="303.0303030303" xlink:href="#block"/><use x="363.6363636364" y="303.0303030303" xlink:href="#block"/><use x="378.7878787879" y="303.0303030303" xlink:href="#block"/><use x="454.5454545455" y="303.0303030303" xlink:href="#block"/><use x="0.0000000000" y="318.1818181818" xlink:href="#block"/><use x="15.1515151515" y="318.1818181818" xlink:href="#block"/><use x="30.3030303030" y="318.1818181818" xlink:href="#block"/><use x="45.4545454545" y="318.1818181818" xlink:href="#block"/><use x="60.6060606061" y="318.1818181818" xlink:href="#block"/><use x="106.0606060606" y="318.1818181818" xlink:href="#block"/><use x="121.2121212121" y="318.1818181818" xlink:href="#block"/><use x="136.3636363636" y="318.1818181818" xlink:href="#block"/><use x="166.6666666667" y="318.1818181818" xlink:href="#block"/><use x="181.8181818182" y="318.1818181818" xlink:href="#block"/><use x="196.9696969697" y="318.1818181818" xlink:href="#block"/><use x="257.5757575758" y="318.1818181818" xlink:href="#block"/><use x="272.7272727273" y="318.1818181818" xlink:href="#block"/><use x="287.8787878788" y="318.1818181818" xlink:href="#block"/><use x="303.0303030303" y="318.1818181818" xlink:href="#block"/><use x="333.3333333333" y="318.1818181818" xlink:href="#block"/><use x="348.4848484848" y="318.1818181818" xlink:href="#block"/><use x="363.6363636364" y="318.1818181818" xlink:href="#block"/><use x="393.9393939394" y="318.1818181818" xlink:href="#block"/><use x="439.3939393939" y="318.1818181818" xlink:href="#block"/><use x="454.5454545455" y="318.1818181818" xlink:href="#block"/><use x="469.6969696970" y="318.1818181818" xlink:href="#block"/><use x="0.0000000000" y="333.3333333333" xlink:href="#block"/><use x="45.4545454545" y="333.3333333333" xlink:href="#block"/><use x="90.9090909091" y="333.3333333333" xlink:href="#block"/><use x="151.5151515152" y="333.3333333333" xlink:href="#block"/><use x="166.6666666667" y="333.3333333333" xlink:href="#block"/><use x="227.2727272727" y="333.3333333333" xlink:href="#block"/><use x="242.4242424242" y="333.3333333333" xlink:href="#block"/><use x="257.5757575758" y="333.3333333333" xlink:href="#block"/><use x="303.0303030303" y="333.3333333333" xlink:href="#block"/><use x="333.3333333333" y="333.3333333333" xlink:href="#block"/><use x="378.7878787879" y="333.3333333333" xlink:href="#block"/><use x="409.0909090909" y="333.3333333333" xlink:href="#block"/><use x="424.2424242424" y="333.3333333333" xlink:href="#block"/><use x="439.3939393939" y="333.3333333333" xlink:href="#block"/><use x="469.6969696970" y="333.3333333333" xlink:href="#block"/><use x="0.0000000000" y="348.4848484848" xlink:href="#block"/><use x="30.3030303030" y="348.4848484848" xlink:href="#block"/><use x="45.4545454545" y="348.4848484848" xlink:href="#block"/><use x="75.7575757576" y="348.4848484848" xlink:href="#block"/><use x="136.3636363636" y="348.4848484848" xlink:href="#block"/><use x="166.6666666667" y="348.4848484848" xlink:href="#block"/><use x="212.1212121212" y="348.4848484848" xlink:href="#block"/><use x="227.2727272727" y="348.4848484848" xlink:href="#block"/><use x="242.4242424242" y="348.4848484848" xlink:href="#block"/><use x="257.5757575758" y="348.4848484848" xlink:href="#block"/><use x="272.7272727273" y="348.4848484848" xlink:href="#block"/><use x="318.1818181818" y="348.4848484848" xlink:href="#block"/><use x="348.4848484848" y="348.4848484848" xlink:href="#block"/><use x="378.7878787879" y="348.4848484848" xlink:href="#block"/><use x="393.9393939394" y="348.4848484848" xlink:href="#block"/><use x="409.0909090909" y="348.4848484848" xlink:href="#block"/><use x="439.3939393939" y="348.4848484848" xlink:href="#block"/><use x="454.5454545455" y="348.4848484848" xlink:href="#block"/><use x="484.8484848485" y="348.4848484848" xlink:href="#block"/><use x="0.0000000000" y="363.6363636364" xlink:href="#block"/><use x="15.1515151515" y="363.6363636364" xlink:href="#block"/><use x="60.6060606061" y="363.6363636364" xlink:href="#block"/><use x="90.9090909091" y="363.6363636364" xlink:href="#block"/><use x="106.0606060606" y="363.6363636364" xlink:href="#block"/><use x="166.6666666667" y="363.6363636364" xlink:href="#block"/><use x="181.8181818182" y="363.6363636364" xlink:href="#block"/><use x="212.1212121212" y="363.6363636364" xlink:href="#block"/><use x="227.2727272727" y="363.6363636364" xlink:href="#block"/><use x="287.8787878788" y="363.6363636364" xlink:href="#block"/><use x="303.0303030303" y="363.6363636364" xlink:href="#block"/><use x="348.4848484848" y="363.6363636364" xlink:href="#block"/><use x="363.6363636364" y="363.6363636364" xlink:href="#block"/><use x="378.7878787879" y="363.6363636364" xlink:href="#block"/><use x="393.9393939394" y="363.6363636364" xlink:href="#block"/><use x="409.0909090909" y="363.6363636364" xlink:href="#block"/><use x="424.2424242424" y="363.6363636364" xlink:href="#block"/><use x="439.3939393939" y="363.6363636364" xlink:href="#block"/><use x="484.8484848485" y="363.6363636364" xlink:href="#block"/><use x="121.2121212121" y="378.7878787879" xlink:href="#block"/><use x="136.3636363636" y="378.7878787879" xlink:href="#block"/><use x="166.6666666667" y="378.7878787879" xlink:href="#block"/><use x="181.8181818182" y="378.7878787879" xlink:href="#block"/><use x="227.2727272727" y="378.7878787879" xlink:href="#block"/><use x="242.4242424242" y="378.7878787879" xlink:href="#block"/><use x="257.5757575758" y="378.7878787879" xlink:href="#block"/><use x="272.7272727273" y="378.7878787879" xlink:href="#block"/><use x="287.8787878788" y="378.7878787879" xlink:href="#block"/><use x="333.3333333333" y="378.7878787879" xlink:href="#block"/><use x="363.6363636364" y="378.7878787879" xlink:href="#block"/><use x="424.2424242424" y="378.7878787879" xlink:href="#block"/><use x="439.3939393939" y="378.7878787879" xlink:href="#block"/><use x="454.5454545455" y="378.7878787879" xlink:href="#block"/><use x="469.6969696970" y="378.7878787879" xlink:href="#block"/><use x="484.8484848485" y="378.7878787879" xlink:href="#block"/><use x="0.0000000000" y="393.9393939394" xlink:href="#block"/><use x="15.1515151515" y="393.9393939394" xlink:href="#block"/><use x="30.3030303030" y="393.9393939394" xlink:href="#block"/><use x="45.4545454545" y="393.9393939394" xlink:href="#block"/><use x="60.6060606061" y="393.9393939394" xlink:href="#block"/><use x="75.7575757576" y="393.9393939394" xlink:href="#block"/><use x="90.9090909091" y="393.9393939394" xlink:href="#block"/><use x="151.5151515152" y="393.9393939394" xlink:href="#block"/><use x="181.8181818182" y="393.9393939394" xlink:href="#block"/><use x="196.9696969697" y="393.9393939394" xlink:href="#block"/><use x="212.1212121212" y="393.9393939394" xlink:href="#block"/><use x="227.2727272727" y="393.9393939394" xlink:href="#block"/><use x="272.7272727273" y="393.9393939394" xlink:href="#block"/><use x="287.8787878788" y="393.9393939394" xlink:href="#block"/><use x="303.0303030303" y="393.9393939394" xlink:href="#block"/><use x="318.1818181818" y="393.9393939394" xlink:href="#block"/><use x="348.4848484848" y="393.9393939394" xlink:href="#block"/><use x="363.6363636364" y="393.9393939394" xlink:href="#block"/><use x="393.9393939394" y="393.9393939394" xlink:href="#block"/><use x="424.2424242424" y="393.9393939394" xlink:href="#block"/><use x="439.3939393939" y="393.9393939394" xlink:href="#block"/><use x="469.6969696970" y="393.9393939394" xlink:href="#block"/><use x="484.8484848485" y="393.9393939394" xlink:href="#block"/><use x="0.0000000000" y="409.0909090909" xlink:href="#block"/><use x="90.9090909091" y="409.0909090909" xlink:href="#block"/><use x="121.2121212121" y="409.0909090909" xlink:href="#block"/><use x="136.3636363636" y="409.0909090909" xlink:href="#block"/><use x="151.5151515152" y="409.0909090909" xlink:href="#block"/><use x="166.6666666667" y="409.0909090909" xlink:href="#block"/><use x="181.8181818182" y="409.0909090909" xlink:href="#block"/><use x="227.2727272727" y="409.0909090909" xlink:href="#block"/><use x="272.7272727273" y="409.0909090909" xlink:href="#block"/><use x="333.3333333333" y="409.0909090909" xlink:href="#block"/><use x="363.6363636364" y="409.0909090909" xlink:href="#block"/><use x="424.2424242424" y="409.0909090909" xlink:href="#block"/><use x="439.3939393939" y="409.0909090909" xlink:href="#block"/><use x="454.5454545455" y="409.0909090909" xlink:href="#block"/><use x="0.0000000000" y="424.2424242424" xlink:href="#block"/><use x="30.3030303030" y="424.2424242424" xlink:href="#block"/><use x="45.4545454545" y="424.2424242424" xlink:href="#block"/><use x="60.6060606061" y="424.2424242424" xlink:href="#block"/><use x="90.9090909091" y="424.2424242424" xlink:href="#block"/><use x="136.3636363636" y="424.2424242424" xlink:href="#block"/><use x="181.8181818182" y="424.2424242424" xlink:href="#block"/><use x="196.9696969697" y="424.2424242424" xlink:href="#block"/><use x="212.1212121212" y="424.2424242424" xlink:href="#block"/><use x="227.2727272727" y="424.2424242424" xlink:href="#block"/><use x="242.4242424242" y="424.2424242424" xlink:href="#block"/><use x="257.5757575758" y="424.2424242424" xlink:href="#block"/><use x="272.7272727273" y="424.2424242424" xlink:href="#block"/><use x="303.0303030303" y="424.2424242424" xlink:href="#block"/><use x="318.1818181818" y="424.2424242424" xlink:href="#block"/><use x="363.6363636364" y="424.2424242424" xlink:href="#block"/><use x="378.7878787879" y="424.2424242424" xlink:href="#block"/><use x="393.9393939394" y="424.2424242424" xlink:href="#block"/><use x="409.0909090909" y="424.2424242424" xlink:href="#block"/><use x="424.2424242424" y="424.2424242424" xlink:href="#block"/><use x="454.5454545455" y="424.2424242424" xlink:href="#block"/><use x="0.0000000000" y="439.3939393939" xlink:href="#block"/><use x="30.3030303030" y="439.3939393939" xlink:href="#block"/><use x="45.4545454545" y="439.3939393939" xlink:href="#block"/><use x="60.6060606061" y="439.3939393939" xlink:href="#block"/><use x="90.9090909091" y="439.3939393939" xlink:href="#block"/><use x="136.3636363636" y="439.3939393939" xlink:href="#block"/><use x="151.5151515152" y="439.3939393939" xlink:href="#block"/><use x="181.8181818182" y="439.3939393939" xlink:href="#block"/><use x="212.1212121212" y="439.3939393939" xlink:href="#block"/><use x="227.2727272727" y="439.3939393939" xlink:href="#block"/><use x="242.4242424242" y="439.3939393939" xlink:href="#block"/><use x="257.5757575758" y="439.3939393939" xlink:href="#block"/><use x="287.8787878788" y="439.3939393939" xlink:href="#block"/><use x="303.0303030303" y="439.3939393939" xlink:href="#block"/><use x="378.7878787879" y="439.3939393939" xlink:href="#block"/><use x="439.3939393939" y="439.3939393939" xlink:href="#block"/><use x="454.5454545455" y="439.3939393939" xlink:href="#block"/><use x="469.6969696970" y="439.3939393939" xlink:href="#block"/><use x="0.0000000000" y="454.5454545455" xlink:href="#block"/><use x="30.3030303030" y="454.5454545455" xlink:href="#block"/><use x="45.4545454545" y="454.5454545455" xlink:href="#block"/><use x="60.6060606061" y="454.5454545455" xlink:href="#block"/><use x="90.9090909091" y="454.5454545455" xlink:href="#block"/><use x="136.3636363636" y="454.5454545455" xlink:href="#block"/><use x="151.5151515152" y="454.5454545455" xlink:href="#block"/><use x="166.6666666667" y="454.5454545455" xlink:href="#block"/><use x="212.1212121212" y="454.5454545455" xlink:href="#block"/><use x="242.4242424242" y="454.5454545455" xlink:href="#block"/><use x="272.7272727273" y="454.5454545455" xlink:href="#block"/><use x="287.8787878788" y="454.5454545455" xlink:href="#block"/><use x="318.1818181818" y="454.5454545455" xlink:href="#block"/><use x="363.6363636364" y="454.5454545455" xlink:href="#block"/><use x="378.7878787879" y="454.5454545455" xlink:href="#block"/><use x="393.9393939394" y="454.5454545455" xlink:href="#block"/><use x="409.0909090909" y="454.5454545455" xlink:href="#block"/><use x="469.6969696970" y="454.5454545455" xlink:href="#block"/><use x="484.8484848485" y="454.5454545455" xlink:href="#block"/><use x="0.0000000000" y="469.6969696970" xlink:href="#block"/><use x="90.9090909091" y="469.6969696970" xlink:href="#block"/><use x="136.3636363636" y="469.6969696970" xlink:href="#block"/><use x="151.5151515152" y="469.6969696970" xlink:href="#block"/><use x="166.6666666667" y="469.6969696970" xlink:href="#block"/><use x="181.8181818182" y="469.6969696970" xlink:href="#block"/><use x="196.9696969697" y="469.6969696970" xlink:href="#block"/><use x="227.2727272727" y="469.6969696970" xlink:href="#block"/><use x="257.5757575758" y="469.6969696970" xlink:href="#block"/><use x="272.7272727273" y="469.6969696970" xlink:href="#block"/><use x="287.8787878788" y="469.6969696970" xlink:href="#block"/><use x="303.0303030303" y="469.6969696970" xlink:href="#block"/><use x="333.3333333333" y="469.6969696970" xlink:href="#block"/><use x="348.4848484848" y="469.6969696970" xlink:href="#block"/><use x="424.2424242424" y="469.6969696970" xlink:href="#block"/><use x="454.5454545455" y="469.6969696970" xlink:href="#block"/><use x="469.6969696970" y="469.6969696970" xlink:href="#block"/><use x="484.8484848485" y="469.6969696970" xlink:href="#block"/><use x="0.0000000000" y="484.8484848485" xlink:href="#block"/><use x="15.1515151515" y="484.8484848485" xlink:href="#block"/><use x="30.3030303030" y="484.8484848485" xlink:href="#block"/><use x="45.4545454545" y="484.8484848485" xlink:href="#block"/><use x="60.6060606061" y="484.8484848485" xlink:href="#block"/><use x="75.7575757576" y="484.8484848485" xlink:href="#block"/><use x="90.9090909091" y="484.8484848485" xlink:href="#block"/><use x="136.3636363636" y="484.8484848485" xlink:href="#block"/><use x="151.5151515152" y="484.8484848485" xlink:href="#block"/><use x="166.6666666667" y="484.8484848485" xlink:href="#block"/><use x="196.9696969697" y="484.8484848485" xlink:href="#block"/><use x="212.1212121212" y="484.8484848485" xlink:href="#block"/><use x="227.2727272727" y="484.8484848485" xlink:href="#block"/><use x="242.4242424242" y="484.8484848485" xlink:href="#block"/><use x="257.5757575758" y="484.8484848485" xlink:href="#block"/><use x="272.7272727273" y="484.8484848485" xlink:href="#block"/><use x="287.8787878788" y="484.8484848485" xlink:href="#block"/><use x="333.3333333333" y="484.8484848485" xlink:href="#block"/><use x="363.6363636364" y="484.8484848485" xlink:href="#block"/><use x="378.7878787879" y="484.8484848485" xlink:href="#block"/><use x="393.9393939394" y="484.8484848485" xlink:href="#block"/><use x="469.6969696970" y="484.8484848485" xlink:href="#block"/></svg>
