<svg xmlns="http://www.w3.org/2000/svg">
  <symbol id="logo" viewBox="0 0 96 96"><path fill-rule="evenodd" clip-rule="evenodd" d="M55.94 51.211a7.889 7.889 0 01-.507.025h-9.836v2.269h9.994c.084 0 .657-.009.79-.017 2.037-.184 2.969-1.868 2.969-3.37 0-1.518-.965-3.144-2.81-3.327-.367-.034-.658-.034-.807-.034l-.025.2v-.2h-6.502c-.3 0-.599-.025-.724-.058-.515-.142-.706-.584-.706-.96 0-.341.19-.8.723-.958.158-.05.324-.05.682-.05h9.429v-2.252h-9.587a7.33 7.33 0 00-.956.05c-1.638.225-2.786 1.543-2.786 3.21 0 1.36.857 2.953 2.752 3.229.341.05.823.041 1.031.041h6.361c.117 0 .4.008.466.017.715.1.964.634.964 1.1-.008.468-.29.977-.914 1.085zM37.315 51.211a7.885 7.885 0 01-.507.025h-9.836v2.269h9.994c.083 0 .657-.009.79-.017 2.037-.184 2.968-1.868 2.968-3.37 0-1.518-.964-3.144-2.818-3.327-.366-.034-.657-.034-.807-.034l-.025.2v-.2h-6.502c-.3 0-.598-.025-.723-.058-.516-.142-.707-.584-.707-.96 0-.341.191-.8.724-.958.157-.05.324-.05.681-.05h9.43v-2.252h-9.571c-.407 0-.698.016-.956.05-1.638.225-2.786 1.543-2.786 3.21 0 1.36.857 2.953 2.752 3.229.341.05.824.041 1.032.041h6.36c.125 0 .408.008.466.017.715.1.964.634.964 1.1-.008.468-.29.977-.923 1.085zM21.834 42.429h-2.469v11.134h2.47V42.429zM13.894 53.563V42.429h-2.478v8.298L3.184 42.43H0v11.134h2.47v-8.349l8.297 8.349h3.127zM93.53 42.429v8.298l-8.24-8.298h-3.184v11.134h2.478v-8.349l8.29 8.349H96V42.429h-2.47zM73.343 49.468h-5.579l2.794-4.47 2.785 4.47zm-4.124-7.04l-6.976 11.135h3.002l1.239-1.985h8.14l1.239 1.985h2.993L71.88 42.429h-2.66zM13.753 36.107c4.989-14.512 18.758-24.262 34.256-24.262 15.507 0 29.276 9.75 34.256 24.262l.05.117h10.91v-1.301l-.159-.017-4.382-.509c-2.793-.325-3.392-1.551-4.149-3.11l-.183-.376C77.792 16.99 63.524 8 48.01 8c-15.515 0-29.775 8.99-36.327 22.91l-.183.376c-.756 1.551-1.355 2.786-4.148 3.111l-4.382.509-.158.017v1.3H13.72l.033-.116zM82.44 59.776h-.125l-.041.117c-4.99 14.512-18.75 24.262-34.257 24.262-15.506 0-29.267-9.758-34.256-24.27l-.041-.117H2.81v1.301l.159.017 4.373.509c2.802.325 3.393 1.55 4.15 3.11l.182.376C18.226 79 32.486 88 48.001 88h.008c15.515 0 29.775-8.99 36.327-22.903l.183-.375c.756-1.551 1.355-2.785 4.149-3.11 0 0 4.107-.476 4.381-.51l.158-.016v-1.301h-.174c-1.09-.009-9.67-.009-10.593-.009z"/></symbol>
  <symbol id="card" viewBox="0 0 64 64"><path d="M50.01 13.9h-8.892V3.913a.92.92 0 00-.406-.759.909.909 0 00-.853-.085L13.556 14a.912.912 0 00-.291.201.76.76 0 00-.073.11c-.046.06-.089.12-.128.184a.92.92 0 00-.064.348v45.928a.92.92 0 00.267.649.91.91 0 00.645.268H50.01a.91.91 0 00.645-.268.92.92 0 00.267-.649V14.817a.92.92 0 00-.267-.649.91.91 0 00-.645-.268zm-.912 45.955H14.815V15.734h9.576a.91.91 0 00.645-.269.92.92 0 00-.645-1.565H18.51l20.785-8.621v8.62h-9.658a.91.91 0 00-.645.27.92.92 0 00.645 1.565h19.462v44.121zM31.916 22.154a14.933 14.933 0 016.478 1.467 15.016 15.016 0 015.214 4.136 15.157 15.157 0 013.356 9.528 15.202 15.202 0 01-1.528 6.63 15.116 15.116 0 01-4.264 5.286 15.01 15.01 0 01-6.136 2.873c-2.235.476-4.55.434-6.767-.122a15.018 15.018 0 01-6.03-3.092 15.124 15.124 0 01-4.072-5.436 15.206 15.206 0 01.46-13.255.915.915 0 011.236-.38.918.918 0 01.379 1.242 13.336 13.336 0 00-1.122 9.556c.829 3.215 2.825 6 5.596 7.806a13.138 13.138 0 009.371 1.951 13.184 13.184 0 008.218-4.93 13.322 13.322 0 002.745-9.218 13.3 13.3 0 00-4.172-8.66 13.158 13.158 0 00-8.895-3.548 13.156 13.156 0 00-8.942 3.43.908.908 0 01-1.52-.724.92.92 0 01.298-.634 14.975 14.975 0 0110.097-3.906zm-11.73 7.052a.915.915 0 01-.273-.651.92.92 0 01.274-.642.912.912 0 01.82-.257l.174.055.155.083.137.119a.92.92 0 01-.555 1.559.907.907 0 01-.44-.064.794.794 0 01-.291-.202zm26.778 27.1a.92.92 0 01-.267.649.91.91 0 01-.645.268h-5.645a.91.91 0 01-.645-.268.92.92 0 01.645-1.566h5.645a.91.91 0 01.645.268.92.92 0 01.267.649zm-10.297-.651a.918.918 0 01.265.651.92.92 0 01-.267.649.91.91 0 01-1.557-.649.922.922 0 01.565-.853.907.907 0 01.994.202zM26.443 15.65a.918.918 0 01-.264-.65.92.92 0 011.094-.9l.165.055.164.083.136.12a.92.92 0 01-.555 1.558.909.909 0 01-.74-.266zm-4.332 40.765a.92.92 0 01-.267.649.91.91 0 01-.645.268h-3.037a.91.91 0 01-.645-.268.92.92 0 01-.267-.649v-2.861a.92.92 0 01.267-.649.91.91 0 011.557.649v1.944H21.2a.91.91 0 01.645.269.92.92 0 01.267.648zm-4.56-4.897a.917.917 0 01-.2-1.004.918.918 0 01.2-.298l.137-.11.155-.092.173-.046a.78.78 0 01.356 0l.173.046a.917.917 0 01.155.091.918.918 0 01-.502 1.678.907.907 0 01-.683-.265h.036z"/><path d="M32.189 44.805l-2.077 2.077a.873.873 0 01-1.264 0 .873.873 0 010-1.264l2.438-2.438v-4.425l-3.792 2.167-.903 3.341c-.09.361-.452.632-.903.632h-.27c-.452-.09-.813-.632-.633-1.083l.722-2.8-2.799-.722c-.451-.09-.812-.632-.632-1.083.09-.452.632-.813 1.084-.632l3.34.903 3.883-2.258-3.792-2.167-3.34.903h-.272c-.361 0-.722-.27-.903-.632-.09-.451.18-.993.632-1.083l2.8-.722-.723-2.8c-.09-.451.18-.993.632-1.083.451-.09.993.18 1.084.632l.902 3.34 3.793 2.168V31.35l-2.438-2.437a.873.873 0 010-1.265.873.873 0 011.264 0l2.077 2.077 2.076-2.076a.873.873 0 011.264 0 .873.873 0 010 1.264l-2.347 2.347v4.424l3.792-2.166.903-3.341c.09-.452.632-.813 1.084-.632.45.09.812.632.631 1.083l-.722 2.8 2.8.721c.45.09.812.633.631 1.084-.09.361-.451.632-.903.632h-.27l-3.341-.903-3.702 2.257 3.792 2.167 3.34-.903c.452-.09.994.181 1.084.633.09.451-.18.993-.632 1.083l-2.799.722.722 2.8c.09.45-.18.993-.632 1.083h-.27c-.362 0-.723-.271-.903-.632l-.903-3.34-3.702-2.078v4.425l2.438 2.438a.873.873 0 010 1.264.82.82 0 01-.632.27.82.82 0 01-.632-.27l-2.077-2.077z"/></symbol>
  <symbol id="ball" viewBox="0 0 64 64"><path d="M37.184 18.363l-.902-3.611c-.09-.362-.452-.723-.903-.723h-1.896c.812-1.354 1.896-3.16 1.896-4.514C35.379 7.257 34.115 5 31.767 5s-3.612 2.257-3.612 4.515c0 1.354 1.084 3.16 1.896 4.514h-1.896c-.451 0-.812.271-.903.723l-.902 3.611C17.5 20.711 11 28.837 11 38.408c0 11.467 9.3 20.767 20.767 20.767 11.467 0 20.767-9.3 20.767-20.767 0-9.571-6.501-17.697-15.35-20.045zM31.767 6.806c1.445 0 1.806 1.806 1.806 2.709 0 .812-.903 2.528-1.806 3.882-.903-1.354-1.806-3.07-1.806-3.882 0-.903.361-2.71 1.806-2.71zm-2.89 9.029h5.78l.541 2.077a21.128 21.128 0 00-3.431-.271c-1.174 0-2.348.09-3.431.27l.542-2.076zm2.89 41.534c-10.474 0-18.961-8.487-18.961-18.961 0-10.474 8.487-18.961 18.961-18.961 10.474 0 18.961 8.487 18.961 18.96 0 10.475-8.487 18.962-18.961 18.962zM20.571 30.823c-.18.271-.452.361-.723.361-.18 0-.36-.09-.541-.18-.452-.271-.542-.813-.271-1.264 2.528-3.612 6.41-6.05 10.745-6.591.451-.09.902.27.993.812.09.452-.271.903-.813.993-3.702.452-7.223 2.619-9.39 5.87zm26.546 7.585c0 8.487-6.863 15.35-15.35 15.35-.542 0-.903-.362-.903-.904 0-.541.361-.902.903-.902 7.494 0 13.544-6.05 13.544-13.544 0-.542.36-.903.903-.903.541 0 .903.361.903.903zm-28.262-4.244c-.36 1.354-.632 2.8-.632 4.244 0 .541-.36.903-.903.903-.541 0-.902-.361-.902-.903 0-1.626.27-3.25.722-4.786.18-.451.632-.722 1.174-.541.451.09.722.632.541 1.083zm12.912 11.828L29.69 48.07a.873.873 0 01-1.264 0 .873.873 0 010-1.264l2.438-2.438v-4.424l-3.792 2.167-.903 3.34c-.09.362-.451.633-.903.633h-.27c-.452-.09-.813-.633-.633-1.084l.722-2.799-2.799-.722c-.451-.09-.812-.632-.632-1.084.09-.451.632-.812 1.084-.632l3.34.903 3.883-2.257-3.792-2.167-3.34.903h-.272c-.36 0-.722-.271-.903-.632-.09-.452.181-.994.632-1.084l2.8-.722-.723-2.8c-.09-.45.18-.992.632-1.083.452-.09.993.18 1.084.632l.903 3.341 3.792 2.167V32.54L28.336 30.1a.873.873 0 010-1.264.873.873 0 011.264 0l2.077 2.077 2.076-2.077a.873.873 0 011.264 0 .873.873 0 010 1.264l-2.347 2.348v4.424l3.792-2.167.903-3.34c.09-.452.632-.814 1.084-.633.451.09.812.632.632 1.084l-.723 2.798 2.8.723c.45.09.812.632.631 1.083-.09.361-.451.632-.903.632h-.27l-3.341-.902-3.702 2.257 3.792 2.167 3.34-.903c.452-.09.994.18 1.084.632.09.451-.18.993-.632 1.083l-2.799.723.723 2.799c.09.451-.181.993-.633 1.083h-.27c-.361 0-.723-.27-.903-.632l-.903-3.34-3.702-2.077v4.424l2.438 2.438a.873.873 0 010 1.264.82.82 0 01-.632.27.82.82 0 01-.632-.27l-2.077-2.077z"/></symbol>
  <symbol id="wallpaper" viewBox="0 0 64 64"><path d="M43.184 5h-21.67A4.52 4.52 0 0017 9.515V54.66a4.52 4.52 0 004.515 4.515h21.67a4.52 4.52 0 004.514-4.515V9.515A4.52 4.52 0 0043.185 5zm0 52.369h-21.67a2.71 2.71 0 01-2.708-2.709V14.03h23.476v-1.807H18.806V9.515a2.709 2.709 0 012.709-2.71h21.67a2.709 2.709 0 012.708 2.71V48.34H22.417v1.806h23.476v4.514a2.709 2.709 0 01-2.709 2.709z"/><path d="M33.253 52.854h-1.806v1.806h1.806v-1.806zM26.932 8.612h-1.805v1.805h1.805V8.612zM30.544 8.612h-1.806v1.805h1.806V8.612zM22.418 17.64h2.708v-1.805h-3.611a.903.903 0 00-.903.903v3.611h1.806v-2.708zM32.578 39.581l-2.077 2.077a.873.873 0 01-1.264 0 .873.873 0 010-1.264l2.438-2.438v-4.424l-3.792 2.167-.903 3.34c-.09.362-.451.633-.903.633h-.27c-.452-.09-.813-.632-.633-1.084l.723-2.799-2.8-.722c-.451-.09-.812-.632-.632-1.084.09-.451.633-.812 1.084-.632l3.34.903 3.883-2.257-3.792-2.167-3.34.903h-.272c-.36 0-.722-.27-.902-.632-.09-.452.18-.993.631-1.084l2.8-.722-.723-2.799c-.09-.451.18-.993.632-1.083.452-.09.993.18 1.084.632l.903 3.34 3.792 2.167v-4.424l-2.438-2.438a.873.873 0 010-1.264.873.873 0 011.264 0l2.077 2.077 2.077-2.077a.873.873 0 011.264 0 .873.873 0 010 1.264l-2.348 2.348v4.424l3.792-2.167.903-3.34c.09-.452.632-.813 1.084-.633.451.09.812.632.632 1.084l-.723 2.799 2.8.722c.45.09.812.632.631 1.084-.09.36-.451.632-.903.632h-.27l-3.341-.903-3.702 2.257 3.792 2.167 3.34-.903c.452-.09.994.18 1.084.632.09.452-.18.993-.632 1.084l-2.799.722.723 2.799c.09.451-.18.993-.632 1.084h-.271c-.361 0-.723-.271-.903-.633l-.903-3.34-3.702-2.077v4.424l2.438 2.438a.873.873 0 010 1.264.82.82 0 01-.632.271.82.82 0 01-.632-.27l-2.077-2.078z"/></symbol>
  <symbol id="car" viewBox="0 0 48 48"><path d="M16.739 26.763h2.387c.377.002.741-.12 1.024-.346.284-.225.467-.537.515-.877a1.304 1.304 0 00-.254-.966 1.548 1.548 0 00-.895-.57l-2.387-.568a1.693 1.693 0 00-.699-.018 1.618 1.618 0 00-.635.264c-.187.13-.338.299-.442.492a1.297 1.297 0 00-.159.618v.567c0 .373.163.73.453.993.29.264.682.411 1.092.411zm-.48-1.97c0-.067.016-.133.049-.193a.448.448 0 01.137-.153.526.526 0 01.415-.076l2.388.566a.484.484 0 01.284.177.406.406 0 01-.082.579.51.51 0 01-.324.105H16.74a.509.509 0 01-.34-.128.42.42 0 01-.14-.308v-.57zm14.612-1.357l-2.387.567a1.549 1.549 0 00-.895.572 1.304 1.304 0 00-.253.967c.048.34.231.651.515.876.284.225.649.348 1.025.345h2.388c.409 0 .8-.148 1.09-.41.288-.264.45-.62.452-.991v-.57c0-.214-.054-.426-.159-.618a1.439 1.439 0 00-.442-.492 1.618 1.618 0 00-.635-.264 1.693 1.693 0 00-.699.018zm.685 1.011c.059.041.106.094.14.154.032.06.049.127.048.194v.567a.42.42 0 01-.141.308.509.509 0 01-.339.128h-2.388a.51.51 0 01-.323-.105.407.407 0 01-.082-.579.483.483 0 01.283-.177l2.388-.567a.51.51 0 01.414.077zm-14.454-2.813h13.796c.087 0 .172-.019.249-.056a.518.518 0 00.19-.155.442.442 0 00.054-.45c-.448-1.03-1.326-2.931-1.777-3.517-.324-.423-.796-.647-1.608-.777a25.635 25.635 0 00-4.006-.23 25.67 25.67 0 00-3.995.227c-.82.13-1.285.355-1.608.78-.449.586-1.327 2.487-1.778 3.517a.443.443 0 00.051.446.516.516 0 00.187.156c.075.037.16.058.245.06zm2.157-3.619c.08-.106.202-.265.92-.378A24.695 24.695 0 0124 17.415c1.275-.027 2.55.044 3.812.214.717.114.839.273.918.377.526.854.983 1.74 1.37 2.654H17.897a19.88 19.88 0 011.369-2.652l-.008.007zm-6.718 5.006a5.081 5.081 0 00-.673 2.654v5.66c0 .442.193.865.537 1.177a1.93 1.93 0 001.293.488h1.68c.485 0 .95-.176 1.293-.488.343-.312.537-.735.537-1.177v-.405h13.584v.405c0 .442.194.865.537 1.177a1.93 1.93 0 001.293.488h1.682c.486 0 .951-.176 1.294-.488.343-.312.536-.735.537-1.177V25.69a5.093 5.093 0 00-.674-2.654 1.908 1.908 0 001.096-.569c.28-.3.438-.68.443-1.074v-.869a1.593 1.593 0 00-.533-1.133 1.92 1.92 0 00-1.245-.488h-.504a2.66 2.66 0 00-1.215.316c-.45-.986-1.17-2.475-1.684-3.15-.982-1.282-2.388-1.636-3.351-1.79-1.478-.21-2.973-.301-4.468-.273-1.491-.03-2.983.059-4.457.265-.968.154-2.372.507-3.354 1.79-.514.676-1.233 2.172-1.684 3.151-.37-.2-.79-.308-1.22-.316h-.497c-.471.01-.92.184-1.254.487A1.592 1.592 0 0011 20.524v.869c.01.392.168.769.45 1.066a1.91 1.91 0 001.091.563zm-.48-2.46a.66.66 0 01.22-.487.798.798 0 01.534-.203h.456c.417.02.81.185 1.098.46a.581.581 0 00.705.016.487.487 0 00.15-.187c.74-1.672 1.443-3.028 1.833-3.537.745-.965 1.815-1.254 2.653-1.39a27.13 27.13 0 014.274-.24c1.43-.033 2.86.048 4.274.24.85.136 1.918.416 2.653 1.39.39.512 1.093 1.865 1.834 3.537a.487.487 0 00.149.188.581.581 0 00.483.097c.083-.021.159-.06.222-.114a1.713 1.713 0 011.09-.46h.465a.827.827 0 01.298.045.772.772 0 01.255.148.693.693 0 01.172.227c.04.085.06.177.06.27v.81a.692.692 0 01-.233.512.838.838 0 01-.563.212h-.626a.57.57 0 00-.28.072.503.503 0 00-.195.195.445.445 0 00.05.505 4.174 4.174 0 01.968 2.816v5.652a.669.669 0 01-.225.495.81.81 0 01-.544.205h-1.669a.81.81 0 01-.544-.205.669.669 0 01-.225-.495v-.887a.461.461 0 00-.155-.342.558.558 0 00-.376-.141H16.678c-.141 0-.276.05-.376.141a.461.461 0 00-.155.341v.888c0 .092-.02.183-.059.268a.7.7 0 01-.166.227.78.78 0 01-.25.152.836.836 0 01-.294.053h-1.685a.836.836 0 01-.295-.053.78.78 0 01-.25-.152.7.7 0 01-.166-.227.646.646 0 01-.058-.268v-5.66a4.168 4.168 0 01.968-2.806.444.444 0 00.05-.505.502.502 0 00-.196-.195.57.57 0 00-.279-.072h-.074l-.536-.007a.838.838 0 01-.563-.212.692.692 0 01-.233-.512v-.805z" stroke="none"/><circle cx="24" cy="24" r="23.5" fill="none"/></symbol>
  <symbol id="color" viewBox="0 0 48 48" fill="none"><circle cx="24" cy="24" r="23.5"/><path d="M35.5 24c0 1.666-.966 3.036-2.639 3.52-.243.07-.503.066-.817.021-.147-.02-.296-.049-.46-.08l-.038-.007a9.31 9.31 0 00-.558-.094c-.392-.05-.832-.061-1.298.075-.47.138-.93.415-1.383.884-.942.976-1.032 2.003-.947 2.893.024.251.068.53.107.779.023.145.044.28.059.393.045.352.05.61-.008.816-.256.925-.666 1.472-1.2 1.803-.552.342-1.302.497-2.318.497-6.351 0-11.5-5.149-11.5-11.5S17.649 12.5 24 12.5 35.5 17.649 35.5 24z"/><circle cx="23.666" cy="16.334" r="1.5" stroke-linecap="round" stroke-linejoin="round"/><circle cx="23.666" cy="31.666" r="1.5" stroke-linecap="round" stroke-linejoin="round"/><circle cx="16.334" cy="24.334" r="1.5" stroke-linecap="round" stroke-linejoin="round"/><circle cx="29.414" cy="18.748" r="1.5" transform="rotate(45 29.414 18.748)" stroke-linecap="round" stroke-linejoin="round"/><circle cx="18.395" cy="29.581" r="1.5" transform="rotate(45 18.395 29.58)" stroke-linecap="round" stroke-linejoin="round"/><circle cx="18.081" cy="18.748" r="1.5" transform="rotate(45 18.081 18.748)" stroke-linecap="round" stroke-linejoin="round"/></symbol>
  <symbol id="bg" viewBox="0 0 48 48" fill="none"><circle cx="24" cy="24" r="23.5"/><rect x="12.5" y="14.9" width="23" height="18.2" rx="1.5"/><path d="M15.6 27.625l5.375-5.374 4.2 4.2 3.05-3.051 4.226 4.226" stroke-linecap="round" stroke-linejoin="round"/><circle cx="16.8" cy="19.2" r="1.7" stroke-linecap="round" stroke-linejoin="round"/></symbol>
  <symbol id="check" viewBox="0 0 21 20" fill="none"><path d="M19.47 4L8.158 15.314 2.5 9.657"/></symbol>
  <symbol id="close" viewBox="0 0 20 20" fill="none"><circle cx="10" cy="10" r="9.5"/><path d="M6.314 6.646l7.367 7.368M6.278 14.041l7.368-7.368"/></symbol>
  <symbol id="arrow" viewBox="0 0 9 16" fill="none"><path d="M.929 15.071L8 8 .929.929"/></symbol>
  <symbol id="upload" viewBox="0 0 64 64"><path d="M20.975 36.358l7.054-7.054 5.512 5.513 4.005-4.004 3.953 4.004" fill="none" stroke-linecap="round" stroke-linejoin="round"/><circle cx="22.55" cy="25.3" r="2.075" fill="none" stroke-linecap="round" stroke-linejoin="round"/><path fill-rule="evenodd" clip-rule="evenodd" d="M18.25 20h27.5a1 1 0 011 1v12.003a9.034 9.034 0 011 .028V21a2 2 0 00-2-2h-27.5a2 2 0 00-2 2v21.2a2 2 0 002 2h20.02a8.98 8.98 0 01-.19-1H18.25a1 1 0 01-1-1V21a1 1 0 011-1z" stroke="none"/><circle cx="47" cy="42" r="7.5" fill="none"/><path d="M47.354 37.646a.5.5 0 00-.708 0l-3.181 3.182a.5.5 0 10.707.707L47 38.707l2.828 2.828a.5.5 0 10.707-.707l-3.181-3.182zM47.5 46v-8h-1v8h1z" stroke="none"/></symbol>
  <symbol id="fb" viewBox="0 0 96.227 96.227"><path d="M73.099 15.973l-9.058.004c-7.102 0-8.477 3.375-8.477 8.328v10.921h16.938l-.006 17.106H55.564v43.895H37.897V52.332h-14.77V35.226h14.77V22.612C37.897 7.972 46.84 0 59.9 0l13.2.021-.001 15.952z"/></symbol>
  <symbol id="vk" viewBox="0 0 96.496 96.496"><path d="M92.499 65.178c-2.873-3.446-6.254-6.387-9.453-9.51-2.886-2.815-3.068-4.448-.748-7.697 2.532-3.546 5.255-6.956 7.81-10.486 2.385-3.299 4.823-6.589 6.078-10.539.796-2.513.092-3.623-2.485-4.063-.444-.077-.903-.081-1.355-.081l-15.289-.018c-1.883-.028-2.924.793-3.59 2.462-.899 2.256-1.826 4.51-2.897 6.687-2.43 4.936-5.144 9.707-8.949 13.747-.839.891-1.767 2.017-3.169 1.553-1.754-.64-2.271-3.53-2.242-4.507l-.015-17.647c-.34-2.521-.899-3.645-3.402-4.135l-15.882.003c-2.12 0-3.183.819-4.315 2.145-.653.766-.85 1.263.492 1.517 2.636.5 4.121 2.206 4.515 4.849.632 4.223.588 8.463.224 12.703-.107 1.238-.32 2.473-.811 3.629-.768 1.817-2.008 2.187-3.637 1.069-1.475-1.012-2.511-2.44-3.525-3.874-3.809-5.382-6.848-11.186-9.326-17.285-.716-1.762-1.951-2.83-3.818-2.859a389.727 389.727 0 0 0-13.762.004c-2.76.052-3.583 1.392-2.459 3.894 4.996 11.113 10.557 21.917 17.816 31.759 3.727 5.051 8.006 9.51 13.534 12.67 6.265 3.582 13.009 4.66 20.112 4.328 3.326-.156 4.325-1.021 4.479-4.336.104-2.268.361-4.523 1.48-6.561 1.098-2 2.761-2.381 4.678-1.137.959.623 1.767 1.416 2.53 2.252 1.872 2.048 3.677 4.158 5.62 6.137 2.437 2.48 5.324 3.945 8.954 3.646l14.052.003c2.264-.148 3.438-2.924 2.138-5.451-.913-1.77-2.111-3.346-3.383-4.871z"/></symbol>
  <symbol id="ok" viewBox="0 0 95.481 95.481"><path d="M43.041 67.254c-7.402-.772-14.076-2.595-19.79-7.064-.709-.556-1.441-1.092-2.088-1.713-2.501-2.402-2.753-5.153-.774-7.988 1.693-2.426 4.535-3.075 7.489-1.682.572.27 1.117.607 1.639.969 10.649 7.317 25.278 7.519 35.967.329 1.059-.812 2.191-1.474 3.503-1.812 2.551-.655 4.93.282 6.299 2.514 1.564 2.549 1.544 5.037-.383 7.016-2.956 3.034-6.511 5.229-10.461 6.761-3.735 1.448-7.826 2.177-11.875 2.661.611.665.899.992 1.281 1.376 5.498 5.524 11.02 11.025 16.5 16.566 1.867 1.888 2.257 4.229 1.229 6.425-1.124 2.4-3.64 3.979-6.107 3.81-1.563-.108-2.782-.886-3.865-1.977-4.149-4.175-8.376-8.273-12.441-12.527-1.183-1.237-1.752-1.003-2.796.071-4.174 4.297-8.416 8.528-12.683 12.735-1.916 1.889-4.196 2.229-6.418 1.15-2.362-1.145-3.865-3.556-3.749-5.979.08-1.639.886-2.891 2.011-4.014 5.441-5.433 10.867-10.88 16.295-16.322.359-.362.694-.746 1.217-1.305z"/><path d="M47.55 48.329c-13.205-.045-24.033-10.992-23.956-24.218C23.67 10.739 34.505-.037 47.84 0c13.362.036 24.087 10.967 24.02 24.478-.068 13.199-10.971 23.897-24.31 23.851zm12.001-24.186c-.023-6.567-5.253-11.795-11.807-11.801-6.609-.007-11.886 5.316-11.835 11.943.049 6.542 5.324 11.733 11.896 11.709 6.552-.023 11.768-5.285 11.746-11.851z"/></symbol>
</svg>
